<mxfile host="app.diagrams.net" agent="Mozilla/5.0 (X11; Linux x86_64) AppleWebKit/537.36 (KHTML, like Gecko) Chrome/129.0.0.0 Safari/537.36" version="26.0.6" pages="2">
  <diagram name="Page-1" id="GfovaIWagQlg7qAzYxv6">
    <mxGraphModel grid="1" page="1" gridSize="10" guides="1" tooltips="1" connect="1" arrows="1" fold="1" pageScale="1" pageWidth="850" pageHeight="1100" math="0" shadow="0">
      <root>
        <mxCell id="0" />
        <mxCell id="1" parent="0" />
        <mxCell id="9si1Bmmh9FL-vdm3qHhz-1" value="" style="rounded=0;whiteSpace=wrap;html=1;" vertex="1" parent="1">
          <mxGeometry x="150" y="80" width="570" height="300" as="geometry" />
        </mxCell>
        <mxCell id="9si1Bmmh9FL-vdm3qHhz-2" value="&lt;font style=&quot;font-size: 15px;&quot;&gt;Set Iteration Number&lt;/font&gt;" style="rounded=1;whiteSpace=wrap;html=1;fillColor=#f5f5f5;fontColor=#333333;strokeColor=#666666;" vertex="1" parent="1">
          <mxGeometry x="180" y="100" width="510" height="40" as="geometry" />
        </mxCell>
        <mxCell id="9si1Bmmh9FL-vdm3qHhz-3" value="Current Iteration Number&amp;nbsp;" style="text;html=1;align=center;verticalAlign=middle;whiteSpace=wrap;rounded=0;fontSize=15;" vertex="1" parent="1">
          <mxGeometry x="200" y="180" width="300" height="10" as="geometry" />
        </mxCell>
        <mxCell id="9si1Bmmh9FL-vdm3qHhz-4" value="&lt;font style=&quot;font-size: 15px;&quot;&gt;10&lt;/font&gt;" style="text;html=1;align=center;verticalAlign=middle;whiteSpace=wrap;rounded=0;" vertex="1" parent="1">
          <mxGeometry x="510" y="170" width="60" height="30" as="geometry" />
        </mxCell>
        <mxCell id="9si1Bmmh9FL-vdm3qHhz-5" value="&lt;span style=&quot;color: rgb(0, 0, 0); font-family: Helvetica; font-size: 15px; font-style: normal; font-variant-ligatures: normal; font-variant-caps: normal; font-weight: 400; letter-spacing: normal; orphans: 2; text-align: center; text-indent: 0px; text-transform: none; widows: 2; word-spacing: 0px; -webkit-text-stroke-width: 0px; white-space: normal; background-color: rgb(251, 251, 251); text-decoration-thickness: initial; text-decoration-style: initial; text-decoration-color: initial; display: inline !important; float: none;&quot;&gt;Enter New Iteration Number:&lt;/span&gt;" style="text;html=1;align=center;verticalAlign=middle;whiteSpace=wrap;rounded=0;" vertex="1" parent="1">
          <mxGeometry x="230" y="222.5" width="240" height="10" as="geometry" />
        </mxCell>
        <mxCell id="9si1Bmmh9FL-vdm3qHhz-6" value="" style="rounded=1;whiteSpace=wrap;html=1;" vertex="1" parent="1">
          <mxGeometry x="510" y="215" width="60" height="25" as="geometry" />
        </mxCell>
        <mxCell id="9si1Bmmh9FL-vdm3qHhz-7" value="&lt;font style=&quot;font-size: 15px;&quot;&gt;Submit&lt;/font&gt;" style="rounded=1;whiteSpace=wrap;html=1;fillColor=#f5f5f5;fontColor=#333333;strokeColor=#666666;" vertex="1" parent="1">
          <mxGeometry x="375" y="280" width="135" height="30" as="geometry" />
        </mxCell>
        <mxCell id="9si1Bmmh9FL-vdm3qHhz-8" value="" style="shape=image;html=1;verticalAlign=top;verticalLabelPosition=bottom;labelBackgroundColor=#ffffff;imageAspect=0;aspect=fixed;image=https://cdn1.iconfinder.com/data/icons/uiux-001-line/32/UI_UX_UIUX_Reject-128.png;fontColor=#C2C2C2;" vertex="1" parent="1">
          <mxGeometry x="692" y="80" width="28" height="28" as="geometry" />
        </mxCell>
        <mxCell id="9si1Bmmh9FL-vdm3qHhz-9" value="&lt;font style=&quot;font-size: 15px; color: rgb(38, 38, 38);&quot;&gt;Iteration number updated successfully&lt;span style=&quot;&quot; class=&quot;hljs-operator&quot;&gt;!&lt;/span&gt;&lt;/font&gt;" style="text;html=1;align=center;verticalAlign=middle;whiteSpace=wrap;rounded=0;" vertex="1" parent="1">
          <mxGeometry x="290" y="310" width="290" height="100" as="geometry" />
        </mxCell>
      </root>
    </mxGraphModel>
  </diagram>
  <diagram id="6HpCyx-F_7gjNqGq9Ltg" name="Page-2">
    <mxGraphModel grid="1" page="1" gridSize="10" guides="1" tooltips="1" connect="1" arrows="1" fold="1" pageScale="1" pageWidth="850" pageHeight="1100" math="0" shadow="0">
      <root>
        <mxCell id="0" />
        <mxCell id="1" parent="0" />
        <mxCell id="fWAnESmdh3rx2afBq7EQ-86" value="" style="rounded=0;whiteSpace=wrap;html=1;" vertex="1" parent="1">
          <mxGeometry x="180" y="38.5" width="480" height="481.5" as="geometry" />
        </mxCell>
        <mxCell id="fWAnESmdh3rx2afBq7EQ-2" value="&lt;font style=&quot;font-size: 15px;&quot;&gt;Evaluate Classifier Performance&lt;/font&gt;" style="rounded=1;whiteSpace=wrap;html=1;fillColor=#f5f5f5;fontColor=#333333;strokeColor=#666666;" vertex="1" parent="1">
          <mxGeometry x="200" y="60" width="430" height="30" as="geometry" />
        </mxCell>
        <mxCell id="fWAnESmdh3rx2afBq7EQ-84" value="Pass" style="rounded=1;whiteSpace=wrap;html=1;fillColor=#f5f5f5;fontColor=#333333;strokeColor=#666666;" vertex="1" parent="1">
          <mxGeometry x="270" y="460" width="120" height="30" as="geometry" />
        </mxCell>
        <mxCell id="fWAnESmdh3rx2afBq7EQ-85" value="Fail" style="rounded=1;whiteSpace=wrap;html=1;fillColor=#f5f5f5;fontColor=#333333;strokeColor=#666666;" vertex="1" parent="1">
          <mxGeometry x="450" y="460" width="120" height="30" as="geometry" />
        </mxCell>
        <mxCell id="fWAnESmdh3rx2afBq7EQ-87" value="" style="shape=image;html=1;verticalAlign=top;verticalLabelPosition=bottom;labelBackgroundColor=#ffffff;imageAspect=0;aspect=fixed;image=https://cdn1.iconfinder.com/data/icons/uiux-001-line/32/UI_UX_UIUX_Reject-128.png" vertex="1" parent="1">
          <mxGeometry x="632" y="40" width="28" height="28" as="geometry" />
        </mxCell>
        <mxCell id="aVLRj7tp9qrpkqVMFD9f-39" value="Max number of errors tolerated (th1): 4" style="text;html=1;align=center;verticalAlign=middle;whiteSpace=wrap;rounded=0;fontSize=15;" vertex="1" parent="1">
          <mxGeometry x="272.5" y="300" width="285" height="10" as="geometry" />
        </mxCell>
        <mxCell id="aVLRj7tp9qrpkqVMFD9f-40" value="Max number of consecutive error tolerated (th 2) :2" style="text;html=1;align=center;verticalAlign=middle;whiteSpace=wrap;rounded=0;fontSize=15;" vertex="1" parent="1">
          <mxGeometry x="245" y="320" width="340" height="10" as="geometry" />
        </mxCell>
        <mxCell id="aVLRj7tp9qrpkqVMFD9f-41" value="th1 satisfied&lt;div&gt;3 &amp;lt; 4&lt;/div&gt;" style="rounded=1;whiteSpace=wrap;html=1;fontSize=15;fillColor=#d5e8d4;strokeColor=#82b366;" vertex="1" parent="1">
          <mxGeometry x="265" y="400" width="130" height="40" as="geometry" />
        </mxCell>
        <mxCell id="aVLRj7tp9qrpkqVMFD9f-42" value="&lt;font style=&quot;font-size: 15px;&quot;&gt;th 2 exceeded&lt;/font&gt;&lt;div&gt;&lt;font style=&quot;font-size: 15px;&quot;&gt;3 &amp;gt; 2&lt;/font&gt;&lt;/div&gt;" style="rounded=1;whiteSpace=wrap;html=1;fillColor=#f8cecc;strokeColor=#b85450;" vertex="1" parent="1">
          <mxGeometry x="445.5" y="400" width="124.5" height="40" as="geometry" />
        </mxCell>
        <mxCell id="aVLRj7tp9qrpkqVMFD9f-102" value="" style="shape=table;startSize=0;container=1;collapsible=0;childLayout=tableLayout;" vertex="1" parent="1">
          <mxGeometry x="240" y="110" width="370" height="174" as="geometry" />
        </mxCell>
        <mxCell id="aVLRj7tp9qrpkqVMFD9f-103" value="" style="shape=tableRow;horizontal=0;startSize=0;swimlaneHead=0;swimlaneBody=0;strokeColor=inherit;top=0;left=0;bottom=0;right=0;collapsible=0;dropTarget=0;fillColor=none;points=[[0,0.5],[1,0.5]];portConstraint=eastwest;" vertex="1" parent="aVLRj7tp9qrpkqVMFD9f-102">
          <mxGeometry width="370" height="35" as="geometry" />
        </mxCell>
        <mxCell id="aVLRj7tp9qrpkqVMFD9f-104" value="Session ID" style="shape=partialRectangle;html=1;whiteSpace=wrap;connectable=0;strokeColor=inherit;overflow=hidden;fillColor=none;top=0;left=0;bottom=0;right=0;pointerEvents=1;" vertex="1" parent="aVLRj7tp9qrpkqVMFD9f-103">
          <mxGeometry width="93" height="35" as="geometry">
            <mxRectangle width="93" height="35" as="alternateBounds" />
          </mxGeometry>
        </mxCell>
        <mxCell id="aVLRj7tp9qrpkqVMFD9f-105" value="&lt;font&gt;Expert Label&lt;/font&gt;" style="shape=partialRectangle;html=1;whiteSpace=wrap;connectable=0;strokeColor=inherit;overflow=hidden;fillColor=none;top=0;left=0;bottom=0;right=0;pointerEvents=1;" vertex="1" parent="aVLRj7tp9qrpkqVMFD9f-103">
          <mxGeometry x="93" width="94" height="35" as="geometry">
            <mxRectangle width="94" height="35" as="alternateBounds" />
          </mxGeometry>
        </mxCell>
        <mxCell id="aVLRj7tp9qrpkqVMFD9f-106" value="&lt;font&gt;Classifier Label&lt;/font&gt;" style="shape=partialRectangle;html=1;whiteSpace=wrap;connectable=0;strokeColor=inherit;overflow=hidden;fillColor=none;top=0;left=0;bottom=0;right=0;pointerEvents=1;" vertex="1" parent="aVLRj7tp9qrpkqVMFD9f-103">
          <mxGeometry x="187" width="90" height="35" as="geometry">
            <mxRectangle width="90" height="35" as="alternateBounds" />
          </mxGeometry>
        </mxCell>
        <mxCell id="aVLRj7tp9qrpkqVMFD9f-107" value="&lt;font&gt;Error&lt;/font&gt;" style="shape=partialRectangle;html=1;whiteSpace=wrap;connectable=0;strokeColor=inherit;overflow=hidden;fillColor=none;top=0;left=0;bottom=0;right=0;pointerEvents=1;" vertex="1" parent="aVLRj7tp9qrpkqVMFD9f-103">
          <mxGeometry x="277" width="93" height="35" as="geometry">
            <mxRectangle width="93" height="35" as="alternateBounds" />
          </mxGeometry>
        </mxCell>
        <mxCell id="aVLRj7tp9qrpkqVMFD9f-108" value="" style="shape=tableRow;horizontal=0;startSize=0;swimlaneHead=0;swimlaneBody=0;strokeColor=inherit;top=0;left=0;bottom=0;right=0;collapsible=0;dropTarget=0;fillColor=none;points=[[0,0.5],[1,0.5]];portConstraint=eastwest;" vertex="1" parent="aVLRj7tp9qrpkqVMFD9f-102">
          <mxGeometry y="35" width="370" height="35" as="geometry" />
        </mxCell>
        <mxCell id="aVLRj7tp9qrpkqVMFD9f-109" value="0" style="shape=partialRectangle;html=1;whiteSpace=wrap;connectable=0;strokeColor=inherit;overflow=hidden;fillColor=none;top=0;left=0;bottom=0;right=0;pointerEvents=1;" vertex="1" parent="aVLRj7tp9qrpkqVMFD9f-108">
          <mxGeometry width="93" height="35" as="geometry">
            <mxRectangle width="93" height="35" as="alternateBounds" />
          </mxGeometry>
        </mxCell>
        <mxCell id="aVLRj7tp9qrpkqVMFD9f-110" value="1" style="shape=partialRectangle;html=1;whiteSpace=wrap;connectable=0;strokeColor=inherit;overflow=hidden;fillColor=none;top=0;left=0;bottom=0;right=0;pointerEvents=1;" vertex="1" parent="aVLRj7tp9qrpkqVMFD9f-108">
          <mxGeometry x="93" width="94" height="35" as="geometry">
            <mxRectangle width="94" height="35" as="alternateBounds" />
          </mxGeometry>
        </mxCell>
        <mxCell id="aVLRj7tp9qrpkqVMFD9f-111" value="2" style="shape=partialRectangle;html=1;whiteSpace=wrap;connectable=0;strokeColor=inherit;overflow=hidden;fillColor=none;top=0;left=0;bottom=0;right=0;pointerEvents=1;" vertex="1" parent="aVLRj7tp9qrpkqVMFD9f-108">
          <mxGeometry x="187" width="90" height="35" as="geometry">
            <mxRectangle width="90" height="35" as="alternateBounds" />
          </mxGeometry>
        </mxCell>
        <mxCell id="aVLRj7tp9qrpkqVMFD9f-112" value="Yes" style="shape=partialRectangle;html=1;whiteSpace=wrap;connectable=0;strokeColor=inherit;overflow=hidden;fillColor=none;top=0;left=0;bottom=0;right=0;pointerEvents=1;" vertex="1" parent="aVLRj7tp9qrpkqVMFD9f-108">
          <mxGeometry x="277" width="93" height="35" as="geometry">
            <mxRectangle width="93" height="35" as="alternateBounds" />
          </mxGeometry>
        </mxCell>
        <mxCell id="aVLRj7tp9qrpkqVMFD9f-113" value="" style="shape=tableRow;horizontal=0;startSize=0;swimlaneHead=0;swimlaneBody=0;strokeColor=inherit;top=0;left=0;bottom=0;right=0;collapsible=0;dropTarget=0;fillColor=none;points=[[0,0.5],[1,0.5]];portConstraint=eastwest;" vertex="1" parent="aVLRj7tp9qrpkqVMFD9f-102">
          <mxGeometry y="70" width="370" height="34" as="geometry" />
        </mxCell>
        <mxCell id="aVLRj7tp9qrpkqVMFD9f-114" value="1" style="shape=partialRectangle;html=1;whiteSpace=wrap;connectable=0;strokeColor=inherit;overflow=hidden;fillColor=none;top=0;left=0;bottom=0;right=0;pointerEvents=1;" vertex="1" parent="aVLRj7tp9qrpkqVMFD9f-113">
          <mxGeometry width="93" height="34" as="geometry">
            <mxRectangle width="93" height="34" as="alternateBounds" />
          </mxGeometry>
        </mxCell>
        <mxCell id="aVLRj7tp9qrpkqVMFD9f-115" value="1" style="shape=partialRectangle;html=1;whiteSpace=wrap;connectable=0;strokeColor=inherit;overflow=hidden;fillColor=none;top=0;left=0;bottom=0;right=0;pointerEvents=1;" vertex="1" parent="aVLRj7tp9qrpkqVMFD9f-113">
          <mxGeometry x="93" width="94" height="34" as="geometry">
            <mxRectangle width="94" height="34" as="alternateBounds" />
          </mxGeometry>
        </mxCell>
        <mxCell id="aVLRj7tp9qrpkqVMFD9f-116" value="3" style="shape=partialRectangle;html=1;whiteSpace=wrap;connectable=0;strokeColor=inherit;overflow=hidden;fillColor=none;top=0;left=0;bottom=0;right=0;pointerEvents=1;" vertex="1" parent="aVLRj7tp9qrpkqVMFD9f-113">
          <mxGeometry x="187" width="90" height="34" as="geometry">
            <mxRectangle width="90" height="34" as="alternateBounds" />
          </mxGeometry>
        </mxCell>
        <mxCell id="aVLRj7tp9qrpkqVMFD9f-117" value="Yes" style="shape=partialRectangle;html=1;whiteSpace=wrap;connectable=0;strokeColor=inherit;overflow=hidden;fillColor=none;top=0;left=0;bottom=0;right=0;pointerEvents=1;" vertex="1" parent="aVLRj7tp9qrpkqVMFD9f-113">
          <mxGeometry x="277" width="93" height="34" as="geometry">
            <mxRectangle width="93" height="34" as="alternateBounds" />
          </mxGeometry>
        </mxCell>
        <mxCell id="aVLRj7tp9qrpkqVMFD9f-118" value="" style="shape=tableRow;horizontal=0;startSize=0;swimlaneHead=0;swimlaneBody=0;strokeColor=inherit;top=0;left=0;bottom=0;right=0;collapsible=0;dropTarget=0;fillColor=none;points=[[0,0.5],[1,0.5]];portConstraint=eastwest;" vertex="1" parent="aVLRj7tp9qrpkqVMFD9f-102">
          <mxGeometry y="104" width="370" height="35" as="geometry" />
        </mxCell>
        <mxCell id="aVLRj7tp9qrpkqVMFD9f-119" value="2" style="shape=partialRectangle;html=1;whiteSpace=wrap;connectable=0;strokeColor=inherit;overflow=hidden;fillColor=none;top=0;left=0;bottom=0;right=0;pointerEvents=1;" vertex="1" parent="aVLRj7tp9qrpkqVMFD9f-118">
          <mxGeometry width="93" height="35" as="geometry">
            <mxRectangle width="93" height="35" as="alternateBounds" />
          </mxGeometry>
        </mxCell>
        <mxCell id="aVLRj7tp9qrpkqVMFD9f-120" value="2" style="shape=partialRectangle;html=1;whiteSpace=wrap;connectable=0;strokeColor=inherit;overflow=hidden;fillColor=none;top=0;left=0;bottom=0;right=0;pointerEvents=1;" vertex="1" parent="aVLRj7tp9qrpkqVMFD9f-118">
          <mxGeometry x="93" width="94" height="35" as="geometry">
            <mxRectangle width="94" height="35" as="alternateBounds" />
          </mxGeometry>
        </mxCell>
        <mxCell id="aVLRj7tp9qrpkqVMFD9f-121" value="1" style="shape=partialRectangle;html=1;whiteSpace=wrap;connectable=0;strokeColor=inherit;overflow=hidden;fillColor=none;top=0;left=0;bottom=0;right=0;pointerEvents=1;" vertex="1" parent="aVLRj7tp9qrpkqVMFD9f-118">
          <mxGeometry x="187" width="90" height="35" as="geometry">
            <mxRectangle width="90" height="35" as="alternateBounds" />
          </mxGeometry>
        </mxCell>
        <mxCell id="aVLRj7tp9qrpkqVMFD9f-122" value="Yes" style="shape=partialRectangle;html=1;whiteSpace=wrap;connectable=0;strokeColor=inherit;overflow=hidden;fillColor=none;top=0;left=0;bottom=0;right=0;pointerEvents=1;" vertex="1" parent="aVLRj7tp9qrpkqVMFD9f-118">
          <mxGeometry x="277" width="93" height="35" as="geometry">
            <mxRectangle width="93" height="35" as="alternateBounds" />
          </mxGeometry>
        </mxCell>
        <mxCell id="aVLRj7tp9qrpkqVMFD9f-123" value="" style="shape=tableRow;horizontal=0;startSize=0;swimlaneHead=0;swimlaneBody=0;strokeColor=inherit;top=0;left=0;bottom=0;right=0;collapsible=0;dropTarget=0;fillColor=none;points=[[0,0.5],[1,0.5]];portConstraint=eastwest;" vertex="1" parent="aVLRj7tp9qrpkqVMFD9f-102">
          <mxGeometry y="139" width="370" height="35" as="geometry" />
        </mxCell>
        <mxCell id="aVLRj7tp9qrpkqVMFD9f-124" value="3" style="shape=partialRectangle;html=1;whiteSpace=wrap;connectable=0;strokeColor=inherit;overflow=hidden;fillColor=none;top=0;left=0;bottom=0;right=0;pointerEvents=1;" vertex="1" parent="aVLRj7tp9qrpkqVMFD9f-123">
          <mxGeometry width="93" height="35" as="geometry">
            <mxRectangle width="93" height="35" as="alternateBounds" />
          </mxGeometry>
        </mxCell>
        <mxCell id="aVLRj7tp9qrpkqVMFD9f-125" value="3" style="shape=partialRectangle;html=1;whiteSpace=wrap;connectable=0;strokeColor=inherit;overflow=hidden;fillColor=none;top=0;left=0;bottom=0;right=0;pointerEvents=1;" vertex="1" parent="aVLRj7tp9qrpkqVMFD9f-123">
          <mxGeometry x="93" width="94" height="35" as="geometry">
            <mxRectangle width="94" height="35" as="alternateBounds" />
          </mxGeometry>
        </mxCell>
        <mxCell id="aVLRj7tp9qrpkqVMFD9f-126" value="3" style="shape=partialRectangle;html=1;whiteSpace=wrap;connectable=0;strokeColor=inherit;overflow=hidden;fillColor=none;top=0;left=0;bottom=0;right=0;pointerEvents=1;" vertex="1" parent="aVLRj7tp9qrpkqVMFD9f-123">
          <mxGeometry x="187" width="90" height="35" as="geometry">
            <mxRectangle width="90" height="35" as="alternateBounds" />
          </mxGeometry>
        </mxCell>
        <mxCell id="aVLRj7tp9qrpkqVMFD9f-127" value="No" style="shape=partialRectangle;html=1;whiteSpace=wrap;connectable=0;strokeColor=inherit;overflow=hidden;fillColor=none;top=0;left=0;bottom=0;right=0;pointerEvents=1;" vertex="1" parent="aVLRj7tp9qrpkqVMFD9f-123">
          <mxGeometry x="277" width="93" height="35" as="geometry">
            <mxRectangle width="93" height="35" as="alternateBounds" />
          </mxGeometry>
        </mxCell>
      </root>
    </mxGraphModel>
  </diagram>
</mxfile>
